PathFileType	4	(X/Y/Z)	Patient4_TMGait_0pt7_02_left_44.trc.trc
DataRate	CameraRate	NumFrames	NumMarkers	Units	OrigDataRate	OrigDataStartFrame	OrigNumFrames
89.171974522293	89.171974522293	4	33	mm	89.171974522293	1	       141
Frame#	Time	Sacral			L.Shoulder			Chest			R.Shoulder			Neck			R.ASIS			L.ASIS			R.Thigh.Superior			R.Thigh.Lateral			R.Thigh.Inferior			R.Patella			L.Thigh.Superior			L.Thigh.Lateral			L.Thigh.Inferior			L.Patella			L.Shank.Superior			L.Shank.Lateral			L.Shank.Inferior			R.Shank.Superior			R.Shank.Lateral			R.Shank.Inferior			R.Heel			R.Midfoot.Superior			R.Midfoot.Lateral			R.Toe			L.Heel			L.Midfoot.Lateral			L.Midfoot.Superior			L.Toe			L.Elbow			L.Wrist			R.Elbow			R.Wrist			
		X1	Y1	Z1	X2	Y2	Z2	X3	Y3	Z3	X4	Y4	Z4	X5	Y5	Z5	X6	Y6	Z6	X7	Y7	Z7	X8	Y8	Z8	X9	Y9	Z9	X10	Y10	Z10	X11	Y11	Z11	X12	Y12	Z12	X13	Y13	Z13	X14	Y14	Z14	X15	Y15	Z15	X16	Y16	Z16	X17	Y17	Z17	X18	Y18	Z18	X19	Y19	Z19	X20	Y20	Z20	X21	Y21	Z21	X22	Y22	Z22	X23	Y23	Z23	X24	Y24	Z24	X25	Y25	Z25	X26	Y26	Z26	X27	Y27	Z27	X28	Y28	Z28	X29	Y29	Z29	X30	Y30	Z30	X31	Y31	Z31	X32	Y32	Z32	X33	Y33	Z33	

1	50.390000000000	726.916319596341	1010.315339700989	514.022164160317	919.031647520989	1423.714761476483	309.371227594631	1028.174421568910	1353.913340914058	467.578479690623	957.420792013265	1439.238437393478	641.721576976022	930.800848738131	1487.336966205211	463.977879982583	954.413924896825	942.868724670705	627.899248435512	932.370276552212	950.817785983346	355.128170838396	997.432407422991	741.577272712359	600.273163766727	914.677393301459	632.127110172424	656.168959986980	991.234675894279	580.945996171981	574.507015026007	992.143996227598	490.862838810541	578.499489750962	1024.091566398710	784.917441037564	390.727928582150	994.688226268648	659.228750168720	307.158378894809	1100.921107827381	603.347589276942	376.463377017944	1120.442110605037	511.992121975391	366.904619778740	1049.772725257094	445.386527480047	356.667881576553	904.785044095930	412.182170638648	311.557756519324	887.902911885655	281.293562300114	359.552514437703	960.227877039835	403.323585418660	585.846288040495	886.416513970609	301.141306142491	646.667569445988	925.644193324698	205.859135170829	581.801169774847	787.219515995201	42.840156837104	550.984035288451	958.867761430788	97.317901822952	588.584844162517	869.904710374517	36.729153100131	625.785219079465	1078.362412212618	43.385541262361	617.801325539494	699.637416437115	235.888785476503	405.519434687361	743.198687601593	183.571711360558	320.648959791711	849.187503564988	173.796967777428	334.051093302765	904.750912408183	50.856528423503	298.756666895284	885.615365597076	1067.062622799857	214.663754833670	1042.352842520181	854.971146124782	221.746998801455	952.818778466741	1094.706947586742	781.027420244189	1077.061898234330	866.626549225378	738.373122061977	
2	50.401214285714	726.007699445520	1010.949663165294	515.020264682432	917.214682349208	1423.285900724272	309.118165947143	1027.425123185403	1353.974686529396	466.788150557546	957.940112189267	1439.780657454623	641.222481841154	929.983516135864	1487.603594648426	464.181213808795	954.041579148935	942.969053323779	627.818009600654	930.886290427893	951.379556236223	354.993888575231	994.132314786804	740.698185421010	599.602854469175	910.944812605622	632.135790518132	656.526565980805	986.195245168135	580.100728705164	574.413789247398	985.870258486794	490.239668084662	578.587625504140	1024.083436571924	788.616210840226	391.638505845452	997.827997308134	662.896535254248	306.975281909605	1104.601978749440	608.907042946488	376.571761160417	1126.366919824498	518.226638439341	366.358016905496	1058.018386279108	449.741604822268	355.931246360629	914.411915980723	411.226434538271	311.351595936086	902.917864249411	279.802294897249	358.914861003846	953.744967680112	402.881076275366	585.903856040548	879.597357056466	301.097771726996	646.908873926836	918.153598587921	205.619837855686	581.893701542475	778.974412133255	42.949502337651	550.943444869991	950.501457922299	97.059164300775	588.461172246088	861.637969872008	36.755377412268	625.957794706138	1070.117904032571	43.168489079208	617.887479971251	716.995443410291	226.313491877640	405.342292200371	762.597186161933	176.537033460894	320.157157691997	868.712154130813	171.608942436515	333.328389552662	929.615936279446	51.818484946908	297.325426013025	881.516643910755	1066.114553508142	217.085555914752	1016.362805014494	843.828771636516	221.118129224683	964.647009287706	1097.314084006782	782.478025725241	1101.675462208787	880.463191862447	733.515541995482	
3	50.412428571429	725.113873478259	1011.545552964051	515.975224137782	915.450309185778	1422.858637599454	308.855482544561	1026.694471871934	1354.008335116085	465.996986730206	958.453323922011	1440.278092826655	640.721504243685	929.163766958955	1487.847892054835	464.266987968132	953.660727926462	943.034797078955	627.713693785782	929.427004395589	951.895101399540	354.847555585967	990.892383487272	739.822879595148	598.934570224301	907.266360359722	632.132226164468	656.861786496338	981.234593933254	579.257744612847	574.314211362730	979.698913477256	489.616329252985	578.667698585503	1024.055962587252	792.196427081736	392.486648377187	1000.850161724984	666.450955565328	306.775963980893	1108.161526579125	614.319533331499	376.635026457330	1132.108869574528	524.319447434652	365.798495058610	1066.093143402458	453.989694281652	355.191506135500	923.903012254032	410.166879457026	311.100668279606	917.775982423838	278.253763681371	358.259838197540	947.367601843007	402.442436804131	585.969051496599	872.876930690110	301.048082618333	647.142413461652	910.762842527522	205.378827147254	581.985050953755	770.841517685267	43.053465783476	550.922535469988	942.254840969384	96.817224097688	588.355318194253	853.478169424557	36.780736148263	626.129450542613	1061.978191212093	42.952751710208	617.973597287913	734.223129251405	216.729324456808	405.084610450975	781.864715552582	169.475755654106	319.605536553013	888.072304421519	169.378901875468	332.591255784678	954.299259668466	52.751495462623	295.918246975427	877.330169830833	1065.203371675148	219.373007595050	990.770860884669	833.303620242504	220.524081641915	976.324977667243	1099.920892145148	783.870917966184	1125.803858897471	894.296942556008	728.656142871864	
4	50.423642857143	724.251261711335	1012.073455499713	516.832980422701	913.789474141964	1422.434071110725	308.560669240574	1026.004874779831	1353.984301398407	465.186376890889	958.969832892003	1440.690867722884	640.199209858299	928.355546448444	1488.049017880656	464.126973592323	953.259948505254	943.036210075065	627.554573299733	928.017180352918	952.320357252643	354.659639296054	987.740308416005	738.945633051752	598.275337685438	903.639386925675	632.107157263285	657.147734130782	976.371070722680	578.408923698956	574.207084713158	973.656213353083	488.987863216866	578.731709244182	1023.972477518941	795.532902697076	393.197068734966	1003.608324207168	669.755482528506	306.538565544637	1111.450634711554	619.414266751383	376.595221970472	1137.467587744030	530.127528305975	365.215618796809	1073.843299750546	458.026764264499	354.449894078434	933.234298234768	408.848586456391	310.721567507522	932.482378594836	276.569908238589	357.554287173598	941.119673908825	402.009067330710	586.043607176122	866.267214920010	300.990902871305	647.357884028589	903.480968096406	205.136046701254	582.071871386500	762.831893667210	43.151460943989	550.936270333913	934.146435909198	96.605989843955	588.280963819614	845.432656572925	36.805805404903	626.298662039600	1053.949186243899	42.739121859784	618.060533630855	751.446832687208	207.014055846796	404.603820861186	801.161980255795	162.307345084065	318.898901797277	907.341694103460	167.069786098809	331.818481831644	978.900709502092	53.723307299440	294.598493877920	872.864825083248	1064.410880751548	221.380052013768	965.812240652844	823.975966952479	220.019794653881	987.793583940069	1102.557914581782	785.116825636235	1149.109944877336	908.309914565144	723.743449069637	
